HIERARCHY
ROOT Hips
{
 OFFSET 0.000000 0.000000 0.000000
 CHANNELS 6 Xposition Yposition Zposition Yrotation Xrotation Zrotation
 JOINT Chest
 {
  OFFSET 0.000000 9.585900 0.002600
  CHANNELS 3 Yrotation Xrotation Zrotation
  JOINT Chest2
  {
   OFFSET 0.000000 9.601200 -0.005300
   CHANNELS 3 Yrotation Xrotation Zrotation
   JOINT Chest3
   {
    OFFSET 0.000000 9.561800 0.000000
    CHANNELS 3 Yrotation Xrotation Zrotation
    JOINT Chest4
    {
     OFFSET 0.000000 9.552100 0.000000
     CHANNELS 3 Yrotation Xrotation Zrotation
     JOINT Neck
     {
      OFFSET 0.000000 14.453000 0.000000
      CHANNELS 3 Yrotation Xrotation Zrotation
      JOINT Head
      {
       OFFSET 0.000000 8.936500 -0.011300
       CHANNELS 3 Yrotation Xrotation Zrotation
       End Site
       {
        OFFSET 0.000000 17.073600 -0.006000
       }
      }
     }
     JOINT RightCollar
     {
      OFFSET -2.921100 9.558500 0.000000
      CHANNELS 3 Yrotation Xrotation Zrotation
      JOINT RightShoulder
      {
       OFFSET -13.519700 0.000000 0.000000
       CHANNELS 3 Yrotation Xrotation Zrotation
       JOINT RightElbow
       {
        OFFSET 0.000000 -29.696600 0.000000
        CHANNELS 3 Yrotation Xrotation Zrotation
        JOINT RightWrist
        {
         OFFSET 0.000000 -24.004700 0.000000
         CHANNELS 3 Yrotation Xrotation Zrotation
         End Site
         {
          OFFSET 0.000000 -17.728500 0.000000
         }
        }
       }
      }
     }
     JOINT LeftCollar
     {
      OFFSET 2.921100 9.558500 0.000000
      CHANNELS 3 Yrotation Xrotation Zrotation
      JOINT LeftShoulder
      {
       OFFSET 13.519700 0.000000 0.000000
       CHANNELS 3 Yrotation Xrotation Zrotation
       JOINT LeftElbow
       {
        OFFSET 0.000000 -29.696600 0.000000
        CHANNELS 3 Yrotation Xrotation Zrotation
        JOINT LeftWrist
        {
         OFFSET 0.000000 -24.004700 0.000000
         CHANNELS 3 Yrotation Xrotation Zrotation
         End Site
         {
          OFFSET 0.000000 -17.728500 0.000000
         }
        }
       }
      }
     }
    }
   }
  }
 }
 JOINT RightHip
 {
  OFFSET -7.771700 -0.012900 -0.001300
  CHANNELS 3 Yrotation Xrotation Zrotation
  JOINT RightKnee
  {
   OFFSET 0.000000 -40.869800 0.001200
   CHANNELS 3 Yrotation Xrotation Zrotation
   JOINT RightAnkle
   {
    OFFSET 0.000000 -39.717900 0.002100
    CHANNELS 3 Yrotation Xrotation Zrotation
    JOINT RightToe
    {
     OFFSET 0.000000 -4.965400 11.033500
     CHANNELS 3 Yrotation Xrotation Zrotation
     End Site
     {
      OFFSET 0.000000 -1.423100 5.872300
     }
    }
   }
  }
 }
 JOINT LeftHip
 {
  OFFSET 7.771700 -0.012900 -0.001300
  CHANNELS 3 Yrotation Xrotation Zrotation
  JOINT LeftKnee
  {
   OFFSET 0.000000 -40.869800 0.001200
   CHANNELS 3 Yrotation Xrotation Zrotation
   JOINT LeftAnkle
   {
    OFFSET 0.000000 -39.717900 0.002100
    CHANNELS 3 Yrotation Xrotation Zrotation
    JOINT LeftToe
    {
     OFFSET 0.000000 -4.965400 11.033500
     CHANNELS 3 Yrotation Xrotation Zrotation
     End Site
     {
      OFFSET 0.000000 -1.423100 5.872300
     }
    }
   }
  }
 }
}
MOTION
Frames: 15
Frame Time: 0.008333
0.000000 85.388000 0.000000 0.000000 -5.767877 0.000000 0.000000 11.653817 0.000000 0.000000 -5.885947 0.000000 0.000000 -0.000000 0.000000 0.000000 -0.000000 0.000000 0.000000 12.528835 0.000000 0.000000 0.711642 0.000000 0.000000 -0.000000 0.000000 0.000000 0.000000 -90.000000 0.000000 -2.309062 0.000000 0.000000 2.309062 0.000000 0.000000 -0.000000 0.000000 0.000000 -0.000000 90.000000 0.000000 -2.309062 0.000000 0.000000 2.309062 0.000000 0.000000 8.520406 0.000000 0.000000 1.905762 0.000000 -0.000000 -4.658285 0.000000 0.000000 -0.000000 0.000000 0.000000 8.520406 0.000000 0.000000 1.905762 0.000000 -0.000000 -4.658285 0.000000 0.000000 -0.000000 0.000000
-87.168493 57.389777 1.670354 161.710647 -7.489140 -0.135525 2.469926 6.132999 0.530158 0.098042 0.242498 -0.016762 0.160218 0.434032 -0.014601 2.179593 5.948950 -0.083419 0.574994 19.291766 -0.991172 1.352071 0.067456 -1.948023 1.172865 8.953673 1.913198 -1.926196 -6.610176 -9.306553 -61.037474 -81.449643 90.482952 -4.259448 5.496950 -32.802796 -3.910335 9.901344 -1.646271 14.862475 -2.991583 0.894323 176.492598 -82.502352 161.994089 -7.498067 12.794616 2.280857 -11.825783 -64.875587 6.968085 -35.770793 72.428943 -37.390382 -3.590901 -7.031214 0.140905 -0.394523 0.692545 -0.152464 2.223504 -67.442423 14.963880 41.585550 64.997935 34.423243 -19.035024 -7.861099 3.960314 -0.015328 -0.906443 0.024961
-87.171579 57.388841 1.669889 161.709105 -7.495121 -0.126148 2.463512 6.143253 0.527499 0.097413 0.243261 -0.015071 0.159825 0.434786 -0.014280 2.183166 5.947007 -0.088999 0.575305 19.298155 -0.978265 1.357151 0.061467 -1.949254 1.176407 8.957507 1.925292 -1.924544 -6.613755 -9.309663 -61.037745 -81.455417 90.483085 -4.264780 5.506688 -32.791859 -3.907247 9.900581 -1.631966 14.859210 -2.996923 0.886991 176.514766 -82.503144 161.970561 -7.500681 12.803261 2.277996 -11.927839 -64.874835 7.049882 -35.741614 72.437552 -37.409349 -3.583535 -7.021186 0.134653 -0.399829 0.675517 -0.159717 2.265156 -67.438225 14.931521 41.557561 65.010146 34.397850 -19.047226 -7.874736 3.956942 -0.011526 -0.878553 0.026423
-87.173906 57.387665 1.670539 161.700480 -7.496868 -0.126446 2.464284 6.148123 0.533351 0.090530 0.247578 -0.007801 0.161460 0.434782 -0.014900 2.184184 5.950342 -0.090155 0.576361 19.297588 -0.969660 1.362273 0.055575 -1.955315 1.181391 8.956826 1.927300 -1.918623 -6.621946 -9.320305 -61.024442 -81.440659 90.475951 -4.261401 5.504685 -32.792491 -3.910243 9.903933 -1.616248 14.866206 -3.009480 0.866823 176.491731 -82.501200 161.991765 -7.511076 12.814979 2.268823 -11.986354 -64.874429 7.105253 -35.713231 72.440631 -37.402068 -3.586047 -7.015008 0.124236 -0.387268 0.667835 -0.161710 2.283650 -67.439048 14.925877 41.533842 65.023013 34.378134 -19.037371 -7.897703 3.957784 -0.015380 -0.847663 0.021867
-87.177224 57.386330 1.671602 161.696599 -7.494131 -0.126761 2.459384 6.148558 0.538504 0.090516 0.247702 -0.007579 0.167912 0.432210 -0.019356 2.166913 5.959207 -0.067261 0.584135 19.290014 -0.990363 1.364270 0.056129 -1.954263 1.200734 8.954145 1.918551 -1.926762 -6.627750 -9.318929 -60.983636 -81.442081 90.443394 -4.267578 5.513820 -32.799037 -3.898911 9.896421 -1.635226 14.863049 -3.015333 0.871479 176.556914 -82.498292 161.925555 -7.510496 12.822064 2.256718 -12.044619 -64.877409 7.154082 -35.682231 72.444030 -37.390679 -3.575565 -7.013885 0.109681 -0.387577 0.666925 -0.155160 2.293596 -67.443596 14.918614 41.527801 65.026722 34.376260 -19.036594 -7.921672 3.958804 -0.009454 -0.823174 0.020935
-87.181584 57.385239 1.670517 161.682343 -7.500596 -0.119255 2.468395 6.156963 0.535802 0.088028 0.248584 -0.005433 0.166771 0.433427 -0.019220 2.166294 5.958239 -0.058814 0.585156 19.293573 -0.990588 1.366159 0.053980 -1.961305 1.204298 8.958309 1.920439 -1.924406 -6.630372 -9.318423 -60.972293 -81.434674 90.430197 -4.250704 5.516609 -32.800706 -3.896514 9.896781 -1.643235 14.859606 -3.021065 0.877666 176.583819 -82.496050 161.898386 -7.502057 12.826200 2.254341 -12.055643 -64.871812 7.166710 -35.660799 72.444015 -37.378922 -3.575662 -7.019538 0.091097 -0.376738 0.673277 -0.144895 2.325135 -67.438241 14.900266 41.495796 65.048590 34.346704 -19.018205 -7.949564 3.969087 -0.012482 -0.803107 0.010523
-87.186549 57.384420 1.667939 161.664654 -7.512613 -0.106846 2.479845 6.171082 0.529620 0.090575 0.247766 -0.007378 0.159260 0.435990 -0.012627 2.171591 5.955561 -0.060182 0.582854 19.296642 -0.981381 1.367264 0.054114 -1.958888 1.206009 8.958997 1.944534 -1.918893 -6.626195 -9.332383 -60.974860 -81.443181 90.432281 -4.244523 5.518775 -32.805546 -3.904119 9.902563 -1.634336 14.864297 -3.025505 0.874386 176.524958 -82.495120 161.960905 -7.504553 12.829717 2.246174 -12.024078 -64.862063 7.145316 -35.657792 72.440231 -37.377207 -3.585597 -7.026097 0.077029 -0.359385 0.679963 -0.138287 2.354630 -67.428257 14.880384 41.445557 65.085137 34.295830 -18.956427 -7.970842 3.986906 -0.080682 -0.802129 -0.011906
-87.188370 57.383711 1.666895 161.659831 -7.519530 -0.116310 2.477498 6.177458 0.546275 0.090571 0.247722 -0.006926 0.159341 0.435836 -0.012170 2.175908 5.955318 -0.060335 0.582716 19.297492 -0.971711 1.366491 0.057583 -1.957163 1.203996 8.961370 1.953313 -1.910798 -6.608910 -9.326421 -61.024805 -81.467746 90.478069 -4.244761 5.518160 -32.808321 -3.911549 9.909246 -1.631028 14.870259 -3.029030 0.878159 176.447485 -82.490870 162.038079 -7.529809 12.838097 2.197600 -12.086950 -64.852316 7.198161 -35.652250 72.441172 -37.377227 -3.580306 -7.028792 0.059604 -0.353077 0.677476 -0.137293 2.317749 -67.425329 14.918442 41.458853 65.093709 34.306562 -18.931944 -7.986837 3.991196 -0.080880 -0.799512 -0.019637
-87.190553 57.383208 1.666094 161.643855 -7.522033 -0.119639 2.466393 6.180168 0.564743 0.090533 0.247809 -0.006649 0.162186 0.435937 -0.013982 2.185714 5.953414 -0.063326 0.583688 19.302349 -0.960191 1.373614 0.059696 -1.963368 1.210246 8.965669 1.952773 -1.901062 -6.602040 -9.327862 -61.053837 -81.479031 90.504176 -4.255685 5.516447 -32.808182 -3.908120 9.914093 -1.627884 14.877665 -3.028532 0.874701 176.443832 -82.486858 162.044100 -7.531630 12.838218 2.176934 -12.132031 -64.848278 7.244570 -35.617880 72.446906 -37.358274 -3.568716 -7.028096 0.051732 -0.361088 0.673366 -0.143700 2.286935 -67.421700 14.963371 41.475346 65.099043 34.311702 -18.924544 -7.999099 3.997560 -0.070157 -0.799447 -0.026585
-87.192357 57.383070 1.664293 161.632464 -7.528777 -0.118456 2.471690 6.186581 0.568804 0.090523 0.247913 -0.006560 0.152415 0.435827 -0.007324 2.179115 5.958455 -0.048897 0.592825 19.300885 -0.980518 1.373492 0.065080 -1.951967 1.225086 8.962891 1.928817 -1.892397 -6.596901 -9.323194 -61.090262 -81.479852 90.536065 -4.247509 5.520709 -32.811602 -3.900440 9.910987 -1.638215 14.887247 -3.027199 0.860712 176.512724 -82.485049 161.971540 -7.529918 12.835662 2.169068 -12.158782 -64.839970 7.267709 -35.588435 72.451323 -37.339076 -3.563861 -7.031378 0.050394 -0.363304 0.674230 -0.149691 2.274831 -67.412026 14.986733 41.475462 65.104980 34.304310 -18.920043 -8.008035 4.000972 -0.062461 -0.807508 -0.030218
-87.191182 57.383240 1.662718 161.619261 -7.538036 -0.127281 2.479544 6.195032 0.582568 0.090514 0.247931 -0.006460 0.151877 0.435854 -0.006982 2.182360 5.959189 -0.049334 0.587146 19.304578 -0.967852 1.373315 0.070581 -1.951254 1.218870 8.968278 1.941113 -1.878105 -6.600469 -9.337097 -61.138898 -81.474111 90.575829 -4.243294 5.522571 -32.815453 -3.906701 9.915768 -1.625427 14.892625 -3.025323 0.864684 176.536404 -82.489883 161.943271 -7.510241 12.821486 2.178572 -12.224763 -64.819869 7.330630 -35.533387 72.452401 -37.293568 -3.568339 -7.044596 0.035504 -0.353847 0.684843 -0.149117 2.245441 -67.401889 15.033645 41.461785 65.117378 34.287678 -18.907946 -8.017072 4.002841 -0.057115 -0.805294 -0.032283
-87.189254 57.383278 1.663612 161.605363 -7.533181 -0.136952 2.479421 6.188848 0.599408 0.090608 0.247999 -0.006036 0.159338 0.436352 -0.010590 2.176128 5.958592 -0.038659 0.586977 19.309343 -0.967490 1.372936 0.079416 -1.950362 1.219963 8.975286 1.944536 -1.864292 -6.604349 -9.355379 -61.212558 -81.471083 90.652472 -4.252674 5.523457 -32.827028 -3.904989 9.922315 -1.621318 14.894454 -3.022002 0.864430 176.451858 -82.488723 162.030439 -7.513127 12.818254 2.184866 -12.244490 -64.820361 7.362838 -35.535773 72.445454 -37.281270 -3.584761 -7.041481 0.009803 -0.327958 0.682168 -0.139508 2.223826 -67.406585 15.073118 41.460449 65.119955 34.284021 -18.904657 -8.018712 4.007525 -0.070519 -0.810080 -0.037989
-87.185823 57.383521 1.664020 161.596582 -7.533003 -0.146805 2.455887 6.186935 0.619384 0.107173 0.248883 -0.012216 0.159310 0.436438 -0.010085 2.159365 5.957237 -0.020160 0.587702 19.320715 -0.963338 1.385111 0.084576 -1.968230 1.236044 8.980153 1.934700 -1.853589 -6.604640 -9.364883 -61.208629 -81.470568 90.653378 -4.251106 5.516991 -32.828212 -3.877815 9.928267 -1.631804 14.892109 -3.015654 0.866981 176.361617 -82.486750 162.116738 -7.523403 12.824298 2.197406 -12.282513 -64.812681 7.408189 -35.519332 72.441757 -37.267222 -3.591038 -7.046900 0.003343 -0.316053 0.686048 -0.141449 2.196645 -67.406066 15.111967 41.478832 65.111095 34.303313 -18.919305 -8.013377 4.005120 -0.062758 -0.816201 -0.039479
-87.181946 57.383922 1.663296 161.580821 -7.539657 -0.148614 2.454007 6.193272 0.628950 0.109082 0.248129 -0.013134 0.159283 0.436395 -0.009675 2.165182 5.957541 -0.020663 0.583491 19.325207 -0.958177 1.383437 0.097122 -1.959738 1.221386 8.984863 1.969365 -1.830056 -6.613686 -9.384411 -61.159835 -81.479899 90.608996 -4.240491 5.521830 -32.827863 -3.876611 9.934198 -1.623127 14.896568 -3.012349 0.866324 176.319514 -82.491555 162.149185 -7.522373 12.818195 2.210567 -12.277863 -64.801465 7.415959 -35.503611 72.440558 -37.250312 -3.584538 -7.051965 0.004946 -0.339922 0.689600 -0.149324 2.159882 -67.400764 15.161379 41.510475 65.109874 34.336168 -18.950646 -7.993274 3.998346 -0.052027 -0.835354 -0.039802
-87.176785 57.384073 1.664819 161.561141 -7.535802 -0.155053 2.456276 6.189207 0.644869 0.108329 0.247601 -0.015134 0.158913 0.436012 -0.009233 2.172382 5.957483 -0.021993 0.587817 19.327665 -0.961780 1.365133 0.122073 -1.927504 1.220803 8.989661 1.976947 -1.822844 -6.619397 -9.388554 -61.158579 -81.486931 90.613678 -4.248024 5.513779 -32.835940 -3.892946 9.945879 -1.595445 14.913507 -3.007996 0.845674 176.249190 -82.494497 162.220460 -7.523309 12.813404 2.220304 -12.286712 -64.799887 7.441941 -35.478781 72.440496 -37.214561 -3.590658 -7.054891 -0.011073 -0.331214 0.692354 -0.147481 2.144465 -67.405808 15.197016 41.526370 65.105452 34.356368 -18.958849 -7.982208 3.990503 -0.046181 -0.841986 -0.037300
